# AST/ASF file generated using VICON BodyLanguage
# -----------------------------------------------
:version 1.10
:name VICON
:units
  mass 1.0
  length 0.45
  angle deg
:documentation
   .ast/.asf automatically generated from VICON data using
   VICON BodyBuilder and BodyLanguage model FoxedUp or BRILLIANT.MOD
:root
   order TX TY TZ RX RY RZ
   axis XYZ
   position 0 0 0  
   orientation 0 -0 0 
:bonedata
  begin
     id 1 
     name lhipjoint
     direction 0.432694 -0.693742 0.575759 
     length 2.19277 
     axis 0 -0 0  XYZ
  end
  begin
     id 2 
     name lfemur
     direction 0.34202 -0.939693 0  
     length 6.69022  
     axis 0 -0 20  XYZ
    dof rx ry rz
    limits (-160.0 20.0)
           (-70.0 70.0)
           (-60.0 70.0)
  end
  begin
     id 3 
     name ltibia
     direction 0.34202 -0.939693 0   
     length 6.50337   
     axis 0 -0 20   XYZ
    dof rx
    limits (-10.0 170.0)
  end
  begin
     id 4 
     name lfoot
     direction 0.158999 -0.435969 0.885805   
     length 2.70564   
     axis -90 -1.13533e-015 20   XYZ
    dof rx rz
    limits (-45.0 90.0)
           (-70.0 20.0)
  end
  begin
     id 5 
     name ltoes
     direction -0.00592919 0.00964381 0.999936   
     length 1.29929   
     axis -90 -1.13533e-015 20   XYZ
    dof rx
    limits (-90.0 20.0)
  end
  begin
     id 6 
     name rhipjoint
     direction -0.414359 -0.700339 0.581234   
     length 2.17212  
     axis 0 -0 0  XYZ 
  end
  begin
     id 7 
     name rfemur
     direction -0.34202 -0.939693 0   
     length 7.17659   
     axis 0 -0 -20   XYZ
    dof rx ry rz
    limits (-160.0 20.0)
           (-70.0 70.0)
           (-70.0 60.0)
  end
  begin
     id 8 
     name rtibia
     direction -0.34202 -0.939693 0   
     length 6.36669   
     axis 0 -0 -20   XYZ
    dof rx
    limits (-10.0 170.0)
 end
 begin
     id 9 
     name rfoot
     direction -0.137064 -0.37658 0.916188   
     length 2.22351  
     axis -90 1.13533e-015 -20   XYZ
    dof rx rz
    limits (-45.0 90.0)
           (-20.0 70.0)
  end
  begin
     id 10 
     name rtoes
     direction -0.000784077 -0.00289101 0.999996   
     length 1.09522   
     axis -90 1.13533e-015 -20   XYZ
    dof rx
    limits (-90.0 20.0)
  end
  begin
     id 11 
     name lowerback
     direction -0.0176242 0.984912 -0.172157   
     length 1.65301   
     axis 0 -0 0   XYZ
    dof rx ry rz
    limits (-20.0 45.0)
           (-30.0 30.0)
           (-30.0 30.0)
  end
  begin
     id 12 
     name upperback
     direction -0.00218128 0.998776 -0.0494072   
     length 1.67776   
     axis 0 -0 0   XYZ
    dof rx ry rz
    limits (-20.0 45.0)
           (-30.0 30.0)
           (-30.0 30.0)
  end
  begin
     id 13 
     name thorax
     direction 0.00544186 0.999658 0.0255711   
     length 1.72293   
     axis 0 -0 0   XYZ
    dof rx ry rz
    limits (-20.0 45.0)
           (-30.0 30.0)
           (-30.0 30.0)
  end
  begin
     id 14 
     name lowerneck
     direction -0.105325 0.983841 0.144785   
     length 2.14226   
     axis 0 -0 0   XYZ
    dof rx ry rz
    limits (-20.0 45.0)
           (-30.0 30.0)
           (-30.0 30.0)
  end
  begin
     id 15 
     name upperneck
     direction 0.0547957 0.988053 -0.144041   
     length 2.17508   
     axis 0 -0 0   XYZ
    dof rx ry rz
    limits (-20.0 45.0)
           (-30.0 30.0)
           (-30.0 30.0)
  end
  begin
     id 16
     name head
     direction 0.0247488 0.997534 -0.0656813  
     length 2.20048  
     axis 0 -0 0   XYZ
    dof rx ry rz
    limits (-20.0 45.0)
           (-30.0 30.0)
           (-30.0 30.0)
  end
  begin
     id 17 
     name lclavicle
     direction 0.820559 0.567247 -0.0701026  
     length 4.09615  
     axis 0 -0 0   XYZ
    dof ry rz
    limits (-20.0 10.0)
           (0.0 20.0)
  end
  begin
     id 18 
     name lhumerus
     direction 0.999977 -0.0067566 -9.96392e-005   
     length 4.59333   
     axis -180 -30 -90   XYZ
    dof rx ry rz
    limits (-60.0 90.0)
           (-90.0 90.0)
           (-90.0 90.0)
  end
  begin
     id 19
     name lradius
     direction 1 -4.48982e-011 -2.53425e-027   
     length 2.81151   
     axis -180 -30 -90   XYZ
    dof rx
    limits (-10.0 170.0)
  end
  begin
     id 20
     name lwrist
     direction 1 -4.48939e-011 -7.39254e-028   
     length 1.40576   
     axis 2.56395e-016 90 90   XYZ
    dof ry
    limits (-180.0 0.0)
 end
  begin
     id 21 
     name lhand
     direction 1 -4.48939e-011 -1.47851e-027   
     length 0.895651   
     axis 9.43423e-016 90 90   XYZ
    dof rx rz
    limits (-90.0 90.0)
           (-45.0 45.0)
  end
  begin
     id 22 
     name lfingers
     direction 1 -4.48978e-011 -2.95702e-027   
     length 0.722097   
     axis 1.88685e-015 90 90   XYZ
    dof rx
    limits (0.0 90.0)
  end
  begin
     id 23
     name lthumb
     direction 0.707107 -6.34931e-011 0.707107   
     length 1.03679   
     axis -90 45 -9.86935e-015   XYZ
    dof rx rz
    limits (-45.0 45.0)
           (-45.0 45.0)
  end
  begin
     id 24 
     name rclavicle
     direction -0.831414 0.553102 -0.0531864   
     length 4.24872  
     axis 0 -0 0   XYZ 
    dof ry rz
    limits (-10.0 20.0)
           (-20.0 0.0)
  end
  begin
     id 25 
     name rhumerus
     direction -0.999916 -0.000939607 0.0129331  
     length 4.74834   
     axis -180 30 90   XYZ
    dof rx ry rz
    limits (-90.0 60.0)
           (-90.0 90.0)
           (-90.0 90.0)
  end
  begin
     id 26 
     name rradius
     direction -1 -4.48956e-011 -1.31752e-027   
     length 2.79907   
     axis -180 30 90   XYZ
    dof rx
    limits (-10.0 170.0)
  end
  begin
     id 27 
     name rwrist
     direction -1 -4.4897e-011 -7.39254e-028   
     length 1.39954   
     axis 2.56395e-016 -90 -90   XYZ
    dof ry
    limits (-180.0 0.0)
  end
  begin
     id 28
     name rhand
     direction -0.999997 -0.00250697 0.000800838   
     length 0.953304   
     axis 9.43423e-016 -90 -90   XYZ
    dof rx rz
    limits (-90.0 90.0)
           (-45.0 45.0)
  end
  begin
     id 29
     name rfingers
     direction -1 -4.48954e-011 -2.95702e-027   
     length 0.763342   
     axis 1.88685e-015 -90 -90   XYZ
    dof rx
    limits (0.0 90.0)
  end
  begin
     id 30
     name rthumb
     direction -0.709701 -0.00217037 0.7045   
     length 1.10115   
     axis -90 -45 9.86935e-015   XYZ
    dof rx rz
    limits (-45.0 45.0)
           (-45.0 45.0)
  end
:hierarchy
  begin
    root lhipjoint rhipjoint lowerback
    lhipjoint lfemur
    lfemur ltibia
    ltibia lfoot
    lfoot ltoes
    rhipjoint rfemur
    rfemur rtibia
    rtibia rfoot
    rfoot rtoes
    lowerback upperback
    upperback thorax
    thorax lowerneck lclavicle rclavicle
    lowerneck upperneck
    upperneck head
    lclavicle lhumerus
    lhumerus lradius
    lradius lwrist
    lwrist lhand lthumb
    lhand lfingers
    rclavicle rhumerus
    rhumerus rradius
    rradius rwrist
    rwrist rhand rthumb
    rhand rfingers
  end

#!OML:ASF G:\ViconDB\ViconDB\414\test\team2\shane.ASF
:FULLY-SPECIFIED
:DEGREES
49
root 1.06226 16.7465 -22.9666 -3.84679 -8.69748 -2.84829
lowerback 9.42378 2.38227 3.73261
upperback 3.90161 3.49311 1.03541
thorax -1.06476 1.76586 -1.37179
lowerneck -16.9556 -1.7427 -5.3473
upperneck 20.1642 -2.77871 7.74198
head 9.33381 -0.851415 3.21173
rclavicle -2.38542e-015 1.72943e-014
rhumerus -25.5062 7.96402 -99.1873
rradius 29.1592
rwrist 33.7177
rhand -30.2167 -15.9101
rfingers 7.12502
rthumb -3.52673 -45.8606
lclavicle -2.38542e-015 1.72943e-014
lhumerus -38.7043 -14.2815 92.5904
lradius 22.4184
lwrist -17.6304
lhand -38.4782 7.49868
lfingers 7.12502
lthumb -11.5005 37.1632
rfemur 23.2712 -17.05 17.2068
rtibia 3.49861e-014
rfoot -19.47 11.3263
rtoes -9.16607
lfemur -19.3328 9.71956 -9.14794
ltibia 34.3737
lfoot -27.3813 -13.8032
ltoes -12.463
50
root 1.04257 16.7694 -22.8759 -3.77867 -8.41766 -2.79897
lowerback 9.59361 2.39878 3.60055
upperback 3.80003 3.51477 1.03507
thorax -1.27065 1.77066 -1.31262
lowerneck -16.8791 -1.733 -5.32
upperneck 20.0629 -2.7568 7.68889
head 9.2817 -0.846978 3.18904
rclavicle -1.36664e-015 -1.61016e-014
rhumerus -24.9067 8.66837 -99.4999
rradius 30.1018
rwrist 33.3096
rhand -30.1004 -15.578
rfingers 7.12502
rthumb -3.41443 -45.5304
lclavicle -1.36664e-015 -1.61016e-014
lhumerus -39.3234 -13.6095 92.1282
lradius 21.8594
lwrist -18.1208
lhand -38.447 7.40029
lfingers 7.12502
lthumb -11.4704 37.0665
rfemur 23.5332 -17.0209 17.1799
rtibia 1.27222e-014
rfoot -19.5743 10.9357
rtoes -9.3773
lfemur -20.1462 10.0005 -9.58871
ltibia 33.6108
lfoot -27.6093 -14.7679
ltoes -12.3417
51
root 1.03479 16.7704 -22.7824 -3.69884 -8.26668 -2.84056
lowerback 9.58691 2.49124 3.77013
upperback 3.76376 3.65221 0.971648
thorax -1.28259 1.84041 -1.48641
lowerneck -16.7832 -1.80545 -5.18148
upperneck 19.9194 -2.87415 7.61994
head 9.22031 -0.901306 3.12313
rclavicle -2.30342e-014 2.5842e-015
rhumerus -24.1399 8.93267 -99.7841
rradius 30.8883
rwrist 32.786
rhand -30.2354 -15.3636
rfingers 7.12502
rthumb -3.54476 -45.3139
lclavicle -2.30342e-014 2.5842e-015
lhumerus -39.886 -13.4427 91.8627
lradius 21.3849
lwrist -17.9292
lhand -38.1669 7.56403
lfingers 7.12502
lthumb -11.2002 37.2451
rfemur 23.801 -16.8556 17.2157
rtibia 6.36111e-015
rfoot -19.7474 10.5817
rtoes -9.64059
lfemur -20.9896 10.1526 -9.99149
ltibia 32.9917
lfoot -27.9873 -15.2547
ltoes -12.4011
52
root 1.0241 16.7629 -22.6817 -3.71325 -8.16905 -2.98206
lowerback 9.74688 2.53828 4.02017
upperback 3.72476 3.74435 0.896347
thorax -1.38389 1.88605 -1.72177
lowerneck -16.7597 -1.81155 -4.90983
upperneck 19.8331 -2.93108 7.53253
head 9.18538 -0.917607 3.03763
rclavicle 2.23012e-014 4.87022e-015
rhumerus -23.4689 9.55817 -100.225
rradius 31.7967
rwrist 31.954
rhand -30.4529 -15.3052
rfingers 7.12502
rthumb -3.75481 -45.2519
lclavicle 2.23012e-014 4.87022e-015
lhumerus -40.5205 -13.139 91.3784
lradius 20.7266
lwrist -18.1128
lhand -38.2853 7.55445
lfingers 7.12502
lthumb -11.3145 37.2293
rfemur 24.2227 -16.6482 17.3518
rtibia -4.45278e-014
rfoot -19.9789 10.1971
rtoes -10.0549
lfemur -21.7334 11.1103 -10.3481
ltibia 32.5272
lfoot -28.441 -16.4398
ltoes -12.2944
53
root 1.01568 16.7572 -22.5837 -3.66568 -8.03193 -2.89716
lowerback 9.74413 2.60748 3.91058
upperback 3.75266 3.82461 0.869645
thorax -1.35448 1.92655 -1.69518
lowerneck -16.8024 -1.86122 -4.93691
upperneck 19.6767 -2.99386 7.58524
head 9.14514 -0.943668 3.04959
rclavicle 1.04287e-013 -6.16232e-015
rhumerus -22.7358 10.4371 -100.46
rradius 32.8037
rwrist 31.1222
rhand -30.4951 -15.2828
rfingers 7.12502
rthumb -3.7956 -45.2287
lclavicle 1.04287e-013 -6.16232e-015
lhumerus -40.9471 -12.5113 90.8328
lradius 20.0144
lwrist -18.7444
lhand -38.2172 7.4977
lfingers 7.12502
lthumb -11.2488 37.1761
rfemur 24.5165 -16.4563 17.2523
rtibia -1.11319e-013
rfoot -20.1481 9.82285
rtoes -10.7606
lfemur -22.6041 11.8148 -10.9962
ltibia 32.2821
lfoot -28.8067 -17.2226
ltoes -12.5923
54
root 1.00935 16.7495 -22.4835 -3.70582 -7.80316 -2.99429
lowerback 9.88579 2.60026 3.95638
upperback 3.76076 3.82773 0.95603
thorax -1.42643 1.92637 -1.6395
lowerneck -16.6116 -1.87057 -5.05837
upperneck 19.3915 -2.96439 7.58649
head 9.01147 -0.945176 3.06871
rclavicle -2.1096e-014 -1.16289e-014
rhumerus -22.0339 11.282 -100.584
rradius 33.6952
rwrist 30.2717
rhand -30.8936 -15.4654
rfingers 7.12502
rthumb -4.18038 -45.4041
lclavicle -2.1096e-014 -1.16289e-014
lhumerus -41.5479 -11.9922 90.5655
lradius 19.5634
lwrist -18.6726
lhand -37.7935 8.25406
lfingers 7.12502
lthumb -10.8401 37.9543
rfemur 24.9549 -16.3572 17.282
rtibia -3.49861e-014
rfoot -20.3049 9.51865
rtoes -11.378
lfemur -23.4107 12.8031 -11.5047
ltibia 32.1607
lfoot -29.0372 -18.3504
ltoes -12.594
55
root 0.998525 16.7454 -22.3764 -3.55521 -7.77548 -2.97878
lowerback 9.81124 2.71734 3.97252
upperback 3.69538 3.97979 0.80441
thorax -1.43277 2.00252 -1.81792
lowerneck -16.6747 -1.89567 -4.79835
upperneck 19.3331 -3.08489 7.68551
head 9.01003 -0.970609 3.04286
rclavicle -2.73577e-014 7.95139e-016
rhumerus -21.3018 11.6191 -100.913
rradius 34.6788
rwrist 29.545
rhand -30.9204 -15.5555
rfingers 7.12502
rthumb -4.20631 -45.4937
lclavicle -2.73577e-014 7.95139e-016
lhumerus -42.146 -11.6589 89.8412
lradius 19.0136
lwrist -19.2171
lhand -37.3754 8.40932
lfingers 7.12502
lthumb -10.4367 38.1303
rfemur 25.1699 -16.0615 17.2815
rtibia 3.81667e-014
rfoot -20.373 9.30139
rtoes -11.4886
lfemur -24.284 13.95 -12.1252
ltibia 32.1283
lfoot -29.0108 -19.3913
ltoes -12.2542
56
root 0.997651 16.7369 -22.2675 -3.52705 -7.68641 -3.0436
lowerback 9.8608 2.7453 4.09879
upperback 3.72051 4.02958 0.784624
thorax -1.42022 2.02887 -1.91526
lowerneck -16.783 -1.92565 -4.78851
upperneck 19.223 -3.12743 7.725
head 8.99588 -0.984401 3.04758
rclavicle 1.42131e-014 -1.98785e-015
rhumerus -20.5721 12.0958 -100.976
rradius 35.4727
rwrist 29.6852
rhand -31.2001 -15.3862
rfingers 7.12502
rthumb -4.47635 -45.3189
lclavicle 1.42131e-014 -1.98785e-015
lhumerus -42.598 -11.288 89.392
lradius 18.4711
lwrist -19.1008
lhand -37.3417 7.67868
lfingers 7.12502
lthumb -10.4043 37.4013
rfemur 25.5253 -15.8112 17.2802
rtibia -2.8625e-014
rfoot -20.4591 9.09805
rtoes -11.944
lfemur -25.0497 14.9758 -12.6895
ltibia 32.2052
lfoot -29.0568 -20.2736
ltoes -12.1795
57
root 0.994655 16.7251 -22.1546 -3.47152 -7.59025 -3.13884
lowerback 9.76303 2.83095 4.23201
upperback 3.7603 4.14848 0.74484
thorax -1.30493 2.09265 -2.03438
lowerneck -16.7271 -1.98763 -4.66427
upperneck 18.9888 -3.24336 7.76835
head 8.9129 -1.02848 3.02262
rclavicle 1.78037e-014 6.41081e-015
rhumerus -19.7677 12.4152 -101.024
rradius 36.3128
rwrist 29.4348
rhand -31.3238 -15.3236
rfingers 7.12502
rthumb -4.59585 -45.2537
lclavicle 1.78037e-014 6.41081e-015
lhumerus -43.1891 -11.1236 88.9548
lradius 17.971
lwrist -19.9612
lhand -37.2832 7.85764
lfingers 7.12502
lthumb -10.3479 37.583
rfemur 25.8778 -15.5746 17.3283
rtibia -3.49861e-014
rfoot -20.5223 8.84795
rtoes -13.1725
lfemur -25.6763 16.0444 -13.2484
ltibia 32.3272
lfoot -29.3436 -20.8933
ltoes -12.0427
58
root 0.998444 16.7107 -22.0384 -3.42952 -7.47609 -3.19947
lowerback 9.80128 2.84227 4.36157
upperback 3.7707 4.17662 0.732098
thorax -1.30248 2.10792 -2.12396
lowerneck -16.8224 -2.03953 -4.53539
upperneck 18.8601 -3.30819 7.63315
head 8.8865 -1.06332 2.94372
rclavicle -3.45513e-014 -1.37161e-014
rhumerus -19.0735 13.0141 -101.067
rradius 37.259
rwrist 29.1388
rhand -31.3963 -15.5522
rfingers 7.12502
rthumb -4.66584 -45.4808
lclavicle -3.45513e-014 -1.37161e-014
lhumerus -43.6439 -10.5735 88.3994
lradius 17.4032
lwrist -20.1065
lhand -37.1238 7.76589
lfingers 7.12502
lthumb -10.1941 37.4989
rfemur 26.2528 -15.3432 17.3149
rtibia 1.27222e-014
rfoot -20.5607 8.66331
rtoes -13.859
lfemur -26.1887 16.6719 -13.7416
ltibia 32.5169
lfoot -29.4246 -21.1169
ltoes -11.9407
59
root 0.994035 16.6949 -21.9217 -3.41085 -7.56189 -3.19444
lowerback 9.92513 2.9691 4.32371
upperback 3.70867 4.34804 0.66531
thorax -1.42092 2.18982 -2.19858
lowerneck -16.6609 -2.07834 -4.53171
upperneck 18.621 -3.38772 7.79056
head 8.78419 -1.08986 2.98334
rclavicle -6.21326e-014 -1.73937e-014
rhumerus -18.4889 13.3221 -101.102
rradius 38.1158
rwrist 28.7688
rhand -31.716 -15.145
rfingers 7.12502
rthumb -4.9745 -45.0666
lclavicle -6.21326e-014 -1.73937e-014
lhumerus -44.2816 -10.2815 87.8117
lradius 16.966
lwrist -20.7632
lhand -36.8203 8.2026
lfingers 7.12502
lthumb -9.90123 37.9498
rfemur 26.6583 -14.9192 17.2805
rtibia -1.59028e-014
rfoot -20.6593 8.39466
rtoes -14.4814
lfemur -26.485 17.2092 -14.1685
ltibia 32.7267
lfoot -29.3483 -20.9048
ltoes -11.7421
60
root 0.995666 16.6816 -21.7982 -3.34857 -7.59376 -3.24037
lowerback 9.95402 3.05989 4.44677
upperback 3.6768 4.48039 0.579894
thorax -1.44388 2.25616 -2.37082
lowerneck -16.7064 -2.12293 -4.41745
upperneck 18.4923 -3.48617 7.86471
head 8.75552 -1.12065 2.97509
rclavicle -4.64752e-014 -2.88238e-015
rhumerus -17.8738 13.6203 -101.135
rradius 38.9701
rwrist 28.7199
rhand -31.5704 -15.1171
rfingers 7.12502
rthumb -4.8339 -45.042
lclavicle -4.64752e-014 -2.88238e-015
lhumerus -44.8573 -10.1781 87.3379
lradius 16.5458
lwrist -21.0013
lhand -36.6229 7.90478
lfingers 7.12502
lthumb -9.71087 37.6609
rfemur 27.0259 -14.5433 17.2782
rtibia 6.99722e-014
rfoot -20.6045 8.15393
rtoes -15.5984
lfemur -26.6795 17.4555 -14.4826
ltibia 32.9764
lfoot -29.2071 -20.4814
ltoes -11.2333
61
root 0.99922 16.6593 -21.6722 -3.30343 -7.53224 -3.16231
lowerback 9.96584 3.07267 4.29345
upperback 3.67411 4.48212 0.512223
thorax -1.45983 2.25615 -2.35671
lowerneck -16.8034 -2.09431 -4.24643
upperneck 18.3452 -3.47516 7.8464
head 8.71944 -1.10519 2.93901
rclavicle -3.53143e-014 -1.33714e-015
rhumerus -17.2559 14.1294 -101.173
rradius 39.7368
rwrist 28.6342
rhand -32.0082 -15.3488
rfingers 7.12502
rthumb -5.25661 -45.2636
lclavicle -3.53143e-014 -1.33714e-015
lhumerus -45.2094 -9.34898 86.4138
lradius 15.9622
lwrist -21.8916
lhand -36.2314 8.01346
lfingers 7.12502
lthumb -9.33312 37.7869
rfemur 27.4269 -14.2462 17.1319
rtibia -5.40694e-014
rfoot -20.5823 7.89923
rtoes -16.2827
lfemur -26.7812 17.6125 -14.9649
ltibia 33.2351
lfoot -28.9576 -19.7901
ltoes -11.3243
62
root 1.00522 16.6396 -21.5425 -3.28548 -7.56346 -3.29593
lowerback 9.98534 3.14126 4.62292
upperback 3.67515 4.60268 0.416336
thorax -1.42543 2.31993 -2.65095
lowerneck -16.7557 -2.16446 -4.27999
upperneck 18.1498 -3.59903 8.06334
head 8.6584 -1.14683 3.00045
rclavicle -7.22489e-014 -4.94477e-015
rhumerus -16.6608 14.1993 -101.156
rradius 40.4299
rwrist 28.7125
rhand -31.8651 -15.0525
rfingers 7.12502
rthumb -5.11848 -44.9707
lclavicle -7.22489e-014 -4.94477e-015
lhumerus -45.7662 -9.33989 85.9504
lradius 15.6245
lwrist -22.1535
lhand -35.8268 7.7838
lfingers 7.12502
lthumb -8.94266 37.5743
rfemur 27.8886 -13.8677 17.1958
rtibia 6.36111e-015
rfoot -20.4777 7.69722
rtoes -17.2857
lfemur -26.686 17.4577 -15.0493
ltibia 33.5475
lfoot -28.5081 -19.0863
ltoes -11.2012
63
root 1.00963 16.6187 -21.4071 -3.18538 -7.5655 -3.4706
lowerback 9.97014 3.20251 4.7288
upperback 3.60967 4.69557 0.428797
thorax -1.47013 2.36454 -2.70742
lowerneck -16.6625 -2.21049 -4.18868
upperneck 17.9332 -3.67371 8.06049
head 8.57199 -1.18118 2.9714
rclavicle 2.60905e-016 7.45443e-015
rhumerus -16.2058 14.6337 -101.092
rradius 41.0457
rwrist 28.6905
rhand -32.2072 -15.2717
rfingers 7.12502
rthumb -5.4488 -45.1817
lclavicle 2.60905e-016 7.45443e-015
lhumerus -46.1539 -8.27686 84.8742
lradius 15.0908
lwrist -23.434
lhand -35.5005 7.69166
lfingers 7.12502
lthumb -8.62777 37.4954
rfemur 28.2872 -13.5261 17.3259
rtibia 6.67916e-014
rfoot -20.4282 7.49741
rtoes -18.0056
lfemur -26.5431 17.0592 -15.0366
ltibia 33.8451
lfoot -28.237 -18.1926
ltoes -11.2757
